<?xml version="1.0" encoding="UTF-8" standalone="no"?>
<!-- Generator: Adobe Illustrator 19.0.0, SVG Export Plug-In . SVG Version: 6.00 Build 0)  -->

<svg
   version="1.1"
   id="Capa_1"
   x="0px"
   y="0px"
   viewBox="0 0 460 460"
   style="enable-background:new 0 0 460 460;"
   xml:space="preserve"
   width="512"
   height="512"
   sodipodi:docname="alarm-clock-svgrepo-com.svg"
   inkscape:version="1.1.1 (3bf5ae0d25, 2021-09-20, custom)"
   xmlns:inkscape="http://www.inkscape.org/namespaces/inkscape"
   xmlns:sodipodi="http://sodipodi.sourceforge.net/DTD/sodipodi-0.dtd"
   xmlns="http://www.w3.org/2000/svg"
   xmlns:svg="http://www.w3.org/2000/svg"><defs
   id="defs11" /><sodipodi:namedview
   id="namedview9"
   pagecolor="#505050"
   bordercolor="#ffffff"
   borderopacity="1"
   inkscape:pageshadow="0"
   inkscape:pageopacity="0"
   inkscape:pagecheckerboard="1"
   showgrid="false"
   inkscape:zoom="0.71263105"
   inkscape:cx="292.57776"
   inkscape:cy="267.31925"
   inkscape:window-width="1366"
   inkscape:window-height="701"
   inkscape:window-x="0"
   inkscape:window-y="0"
   inkscape:window-maximized="1"
   inkscape:current-layer="XMLID_1795_" />
<g
   id="XMLID_1795_">
	<path
   id="XMLID_1794_"
   style="fill:#4C4D4D;"
   d="M150,375c0,5.523-4.477,10-10,10h-40c-5.523,0-10-4.477-10-10v-70h60V375z    M370,305h-60v70c0,5.523,4.477,10,10,10h40c5.523,0,10-4.477,10-10V305z M260,75h-60c-5.523,0-10,4.477-10,10v60   c0,5.523,4.477,10,10,10h60c5.523,0,10-4.477,10-10V85C270,79.477,265.523,75,260,75z" />
	<path
   id="XMLID_1785_"
   style="fill:#343535;"
   d="M150,375H90v-60h60V375z M370,315h-60v60h60V315z" />
	<path
   id="XMLID_1790_"
   style="fill:#737373;"
   d="M400,365H60c-33.137,0-60-26.863-60-60V165c0-33.137,26.863-60,60-60h340   c33.137,0,60,26.863,60,60v140C460,338.137,433.137,365,400,365z M260,85L260,85c0-5.523-4.477-10-10-10h-50   c-5.523,0-10,4.477-10,10v10h60C255.523,95,260,90.523,260,85z" />
	<path
   id="XMLID_487_"
   style="fill:#343535;"
   d="M400,325H60c-11.046,0-20-8.954-20-20V165c0-11.046,8.954-20,20-20h340   c11.046,0,20,8.954,20,20v140C420,316.046,411.046,325,400,325z M265,343v-6c0-1.105-0.895-2-2-2h-66c-1.105,0-2,0.895-2,2v6   c0,1.105,0.895,2,2,2h66C264.105,345,265,344.105,265,343z" />
	
</g>















</svg>
