<?xml version="1.0" encoding="UTF-8" standalone="no"?>
<svg
   sodipodi:docname="uwu_emote_open_mouth.svg"
   inkscape:version="1.1.1 (3bf5ae0d25, 2021-09-20, custom)"
   id="svg8"
   version="1.1"
   viewBox="0 0 54.427349 20.788046"
   height="20.788046mm"
   width="54.427349mm"
   xmlns:inkscape="http://www.inkscape.org/namespaces/inkscape"
   xmlns:sodipodi="http://sodipodi.sourceforge.net/DTD/sodipodi-0.dtd"
   xmlns="http://www.w3.org/2000/svg"
   xmlns:svg="http://www.w3.org/2000/svg"
   xmlns:rdf="http://www.w3.org/1999/02/22-rdf-syntax-ns#"
   xmlns:cc="http://creativecommons.org/ns#"
   xmlns:dc="http://purl.org/dc/elements/1.1/">
  <defs
     id="defs2">
    <inkscape:path-effect
       effect="fill_between_many"
       method="originald"
       linkedpaths="#path855-3,0,1|"
       id="path-effect4056" />
    <inkscape:path-effect
       effect="fill_between_many"
       method="originald"
       linkedpaths="#path855-3,0,1|"
       id="path-effect5048" />
  </defs>
  <sodipodi:namedview
     inkscape:window-maximized="0"
     inkscape:window-y="0"
     inkscape:window-x="0"
     inkscape:window-height="699"
     inkscape:window-width="1364"
     showgrid="false"
     inkscape:document-rotation="0"
     inkscape:current-layer="layer1"
     inkscape:document-units="mm"
     inkscape:cy="44.464286"
     inkscape:cx="126.25"
     inkscape:zoom="2.8"
     inkscape:pageshadow="2"
     inkscape:pageopacity="0.0"
     borderopacity="1.0"
     bordercolor="#666666"
     pagecolor="#ffffff"
     id="base"
     inkscape:pagecheckerboard="1" />
  <metadata
     id="metadata5">
    <rdf:RDF>
      <cc:Work
         rdf:about="">
        <dc:format>image/svg+xml</dc:format>
        <dc:type
           rdf:resource="http://purl.org/dc/dcmitype/StillImage" />
      </cc:Work>
    </rdf:RDF>
  </metadata>
  <g
     transform="translate(22.822768,-42.071817)"
     id="layer1"
     inkscape:groupmode="layer"
     inkscape:label="Layer 1">
    <path
       inkscape:original-d="M 0,0"
       inkscape:path-effect="#path-effect4056"
       d="m 103.15039,36.828125 c -0.0649,-7.6e-5 -0.12041,0.0028 -0.16797,0.0078 -0.14308,0.01512 -0.75775,0.102008 -1.36523,0.193359 -2.776914,0.417653 -4.904657,1.40199 -7.431643,3.4375 -2.160896,1.740618 -4.11695,4.515833 -5.509766,7.642578 -0.717772,1.798075 -1.260688,4.543395 -1.246926,7.272132 0.01228,2.43473 0.377324,4.765219 0.889204,7.085714 0.536017,2.429915 1.915177,4.849188 2.336467,5.944901 2.073453,3.254689 5.351069,5.857196 8.57399,7.0703 1.235924,0.465199 4.348454,1.064988 5.109374,0.984375 0.14309,-0.01512 0.7558,-0.102008 1.36328,-0.193359 2.77691,-0.417653 4.90466,-1.401991 7.43164,-3.4375 3.04851,-2.546229 5.1093,-7.795595 5.98749,-9.976958 2.30332,-5.700769 -0.58373,-14.202644 -2.46596,-17.974219 -2.13313,-3.20589 -5.33958,-5.85135 -8.5625,-7.064454 -1.15868,-0.436124 -3.96794,-0.991046 -4.94141,-0.992187 z"
       id="path4058" />
    <path
       inkscape:original-d="M 0,0"
       inkscape:path-effect="#path-effect5048"
       d="m 103.15039,36.828125 c -0.0649,-7.6e-5 -0.12041,0.0028 -0.16797,0.0078 -0.14308,0.01512 -0.75775,0.102008 -1.36523,0.193359 -2.776914,0.417653 -4.904657,1.40199 -7.431643,3.4375 -2.160896,1.740618 -4.11695,4.515833 -5.509766,7.642578 -0.717772,1.798075 -1.260688,4.543395 -1.246926,7.272132 0.01228,2.43473 0.377324,4.765219 0.889204,7.085714 0.536017,2.429915 1.915177,4.849188 2.336467,5.944901 2.073453,3.254689 5.351069,5.857196 8.57399,7.0703 1.235924,0.465199 4.348454,1.064988 5.109374,0.984375 0.14309,-0.01512 0.7558,-0.102008 1.36328,-0.193359 2.77691,-0.417653 4.90466,-1.401991 7.43164,-3.4375 3.04851,-2.546229 5.1093,-7.795595 5.98749,-9.976958 2.30332,-5.700769 -0.58373,-14.202644 -2.46596,-17.974219 -2.13313,-3.20589 -5.33958,-5.85135 -8.5625,-7.064454 -1.15868,-0.436124 -3.96794,-0.991046 -4.94141,-0.992187 z"
       id="path5050" />
    <path
       style="fill:#e77993;stroke:#e87893;stroke-width:3.37458;stroke-linecap:round;stroke-linejoin:round;paint-order:fill markers stroke;stroke-opacity:1;fill-opacity:1"
       d="m 102.61872,71.518642 c -1.86787,-0.416146 -4.372255,-1.188943 -6.455263,-3.26285 -1.799892,-1.792031 -2.483241,-2.602219 -3.682035,-4.984853 -2.036445,-4.047487 -1.395057,-6.055212 -0.953258,-9.132874 0.219042,-1.525893 0.558818,-2.825464 1.125206,-3.987003 1.527064,-3.131681 4.062935,-5.759269 6.599834,-7.016788 3.418726,-1.694634 7.969006,-1.453155 11.321536,1.815073 1.80186,1.756554 2.45689,3.41709 3.34037,5.608577 1.32752,3.292899 1.91125,6.894266 1.51917,10.064846 -0.23916,1.933949 -0.66185,3.742836 -2.1853,5.797082 -2.92285,3.941225 -7.23562,5.855089 -10.63026,5.09879 z"
       id="path5089"
       transform="matrix(0.26458333,0,0,0.26458333,-22.822768,42.071817)"
       sodipodi:nodetypes="sssssssssss" />
    <path
       id="path855-3"
       style="fill:#000000;stroke-width:0.220904"
       d="m 103.15039,36.828125 c -0.0649,-7.6e-5 -0.12041,0.0028 -0.16797,0.0078 -0.14308,0.01512 -0.75775,0.102008 -1.36523,0.193359 -2.776914,0.417653 -4.904657,1.40199 -7.431643,3.4375 -2.160896,1.740618 -4.11695,4.515833 -5.509766,7.642578 -0.717772,1.798075 -1.260688,4.543395 -1.246926,7.272132 0.01228,2.43473 0.377324,4.765219 0.889204,7.085714 0.536017,2.429915 1.915177,4.849188 2.336467,5.944901 2.073453,3.254689 5.351069,5.857196 8.57399,7.0703 1.235924,0.465199 4.348454,1.064988 5.109374,0.984375 0.14309,-0.01512 0.7558,-0.102008 1.36328,-0.193359 2.77691,-0.417653 4.90466,-1.401991 7.43164,-3.4375 3.04851,-2.546229 5.1093,-7.795595 5.98749,-9.976958 2.30332,-5.700769 -0.58373,-14.202644 -2.46596,-17.974219 -2.13313,-3.20589 -5.33958,-5.85135 -8.5625,-7.064454 -1.15868,-0.436124 -3.96794,-0.991046 -4.94141,-0.992187 z m 0.14258,5.818359 c 0.39679,0.0083 0.79371,0.04971 1.1875,0.126954 2.21838,0.435114 3.58264,1.233129 5.64258,3.302734 1.49983,1.506871 2.06071,2.265791 2.78906,3.765625 1.87065,4.278361 2.52462,7.291264 1.55273,12.443359 -2.97167,5.910373 -7.42456,9.068014 -11.625,8.244141 -2.21837,-0.435114 -3.582641,-1.235083 -5.642574,-3.304688 -1.499834,-1.506871 -2.060714,-2.263838 -2.789063,-3.763671 -1.428169,-2.940907 -2.119396,-3.726725 -2.507476,-7.310184 0.101077,-1.469709 0.475447,-4.179906 0.954742,-5.133176 2.693082,-5.356275 6.601847,-8.450969 10.437501,-8.371094 z"
       transform="matrix(0.26458333,0,0,0.26458333,-22.822768,42.071817)"
       sodipodi:nodetypes="sccscsscscccccssssssccsscsss" />
  </g>
</svg>
