<?xml version="1.0" encoding="UTF-8" standalone="no"?>
<svg
   sodipodi:docname="uwu_emote.svg"
   inkscape:version="1.1.1 (3bf5ae0d25, 2021-09-20, custom)"
   id="svg8"
   version="1.1"
   viewBox="0 0 54.427349 20.788046"
   height="20.788046mm"
   width="54.427349mm"
   xmlns:inkscape="http://www.inkscape.org/namespaces/inkscape"
   xmlns:sodipodi="http://sodipodi.sourceforge.net/DTD/sodipodi-0.dtd"
   xmlns="http://www.w3.org/2000/svg"
   xmlns:svg="http://www.w3.org/2000/svg"
   xmlns:rdf="http://www.w3.org/1999/02/22-rdf-syntax-ns#"
   xmlns:cc="http://creativecommons.org/ns#"
   xmlns:dc="http://purl.org/dc/elements/1.1/">
  <defs
     id="defs2" />
  <sodipodi:namedview
     inkscape:window-maximized="0"
     inkscape:window-y="0"
     inkscape:window-x="0"
     inkscape:window-height="699"
     inkscape:window-width="1364"
     showgrid="false"
     inkscape:document-rotation="0"
     inkscape:current-layer="layer1"
     inkscape:document-units="mm"
     inkscape:cy="-11.364216"
     inkscape:cx="141.67389"
     inkscape:zoom="1.979899"
     inkscape:pageshadow="2"
     inkscape:pageopacity="0.0"
     borderopacity="1.0"
     bordercolor="#666666"
     pagecolor="#ffffff"
     id="base"
     inkscape:pagecheckerboard="1" />
  <metadata
     id="metadata5">
    <rdf:RDF>
      <cc:Work
         rdf:about="">
        <dc:format>image/svg+xml</dc:format>
        <dc:type
           rdf:resource="http://purl.org/dc/dcmitype/StillImage" />
      </cc:Work>
    </rdf:RDF>
  </metadata>
  <g
     transform="translate(22.822768,-42.071817)"
     id="layer1"
     inkscape:groupmode="layer"
     inkscape:label="Layer 1">
    <path
       id="path853"
       d="m 1.755613,58.957603 c -1.12496849,-0.352101 -2.09465999,-1.658795 -2.40623249,-3.242485 -0.057446,-0.291994 -0.087732,-0.896028 -0.068693,-1.370045 0.030195,-0.75178 0.056977,-0.872203 0.2364706,-1.063264 0.3317739,-0.353158 0.7620694,-0.251524 0.9259959,0.218715 0.051465,0.147633 0.093572,0.483332 0.093572,0.745999 0,0.957368 0.48040029,2.178888 1.10097389,2.799462 0.6213221,0.621322 0.9973826,0.523933 1.5048492,-0.389713 0.1526193,-0.274777 0.4092355,-0.62342 0.5702571,-0.774761 0.2533065,-0.23808 0.3524724,-0.275167 0.7357516,-0.275167 h 0.4429853 l 0.6505761,0.677333 c 0.4015062,0.41802 0.7175203,0.677334 0.8254356,0.677334 0.2584052,0 0.758162,-0.545726 1.0341237,-1.129246 0.2449296,-0.517905 0.3404997,-0.895797 0.4925474,-1.947577 0.1009329,-0.698195 0.2453996,-0.940459 0.6380963,-1.070061 0.3772848,-0.124515 0.6815531,0.0071 0.9547427,0.412904 0.2478735,0.368222 0.2573113,1.050552 0.027773,2.007933 -0.2834978,1.182443 -0.7164416,1.994507 -1.4544792,2.728143 -0.5650061,0.561637 -0.9405594,0.728541 -1.6392999,0.728541 -0.6823184,0 -1.0897014,-0.173432 -1.5617756,-0.664885 -0.1604764,-0.167064 -0.3319264,-0.302306 -0.381,-0.300539 -0.049074,0.0018 -0.1901859,0.14932 -0.3135833,0.327894 -0.5817175,0.841832 -1.5026182,1.187199 -2.4090869,0.903485 z"
       style="fill:#000000;stroke-width:0.0846667" />
  </g>
</svg>
