<?xml version="1.0" encoding="UTF-8" standalone="no"?>
<svg
   sodipodi:docname="uwu_emote2.svg"
   inkscape:version="1.1 (c4e8f9ed74, 2021-05-24)"
   id="svg8"
   version="1.1"
   viewBox="0 0 54.427349 20.788046"
   height="20.788046mm"
   width="54.427349mm"
   xmlns:inkscape="http://www.inkscape.org/namespaces/inkscape"
   xmlns:sodipodi="http://sodipodi.sourceforge.net/DTD/sodipodi-0.dtd"
   xmlns="http://www.w3.org/2000/svg"
   xmlns:svg="http://www.w3.org/2000/svg"
   xmlns:rdf="http://www.w3.org/1999/02/22-rdf-syntax-ns#"
   xmlns:cc="http://creativecommons.org/ns#"
   xmlns:dc="http://purl.org/dc/elements/1.1/">
  <defs
     id="defs2" />
  <sodipodi:namedview
     inkscape:window-maximized="0"
     inkscape:window-y="0"
     inkscape:window-x="0"
     inkscape:window-height="700"
     inkscape:window-width="1364"
     showgrid="false"
     inkscape:document-rotation="0"
     inkscape:current-layer="layer1"
     inkscape:document-units="mm"
     inkscape:cy="37.88072"
     inkscape:cx="-17.172593"
     inkscape:zoom="0.9899495"
     inkscape:pageshadow="2"
     inkscape:pageopacity="0.0"
     borderopacity="1.0"
     bordercolor="#666666"
     pagecolor="#ffffff"
     id="base"
     inkscape:pagecheckerboard="1" />
  <metadata
     id="metadata5">
    <rdf:RDF>
      <cc:Work
         rdf:about="">
        <dc:format>image/svg+xml</dc:format>
        <dc:type
           rdf:resource="http://purl.org/dc/dcmitype/StillImage" />
        <dc:title />
      </cc:Work>
    </rdf:RDF>
  </metadata>
  <g
     transform="translate(22.822768,-42.071817)"
     id="layer1"
     inkscape:groupmode="layer"
     inkscape:label="Layer 1">
    <path
       id="path851"
       d="m 24.043077,62.674359 c -1.516136,-0.384291 -2.747237,-1.597158 -3.309063,-3.260052 -0.204871,-0.60638 -0.242799,-0.855452 -0.244655,-1.606633 -0.0045,-1.832823 0.685555,-3.262249 2.109401,-4.369387 0.635492,-0.494138 1.215796,-0.787021 2.327544,-1.174725 2.02032,-0.704553 3.460411,-0.421419 4.928226,0.968932 0.811375,0.768554 1.246209,1.449869 1.556035,2.43805 0.199965,0.637784 0.215556,0.790245 0.177488,1.735666 -0.04766,1.183573 -0.192162,1.687774 -0.757867,2.644316 -0.735408,1.243494 -1.890018,2.110678 -3.327128,2.498881 -0.896179,0.242082 -2.735768,0.308516 -3.459981,0.124952 z"
       style="fill:#ff6187;fill-opacity:1;stroke-width:0.0846667" />
    <path
       id="path847"
       d="m -18.894273,62.767769 c -2.050609,-0.470944 -3.292164,-1.619231 -3.769745,-3.486554 -0.196833,-0.769608 -0.209477,-1.387443 -0.04434,-2.166611 0.449155,-2.119276 1.82346,-3.729789 3.722782,-4.362635 0.632412,-0.210716 0.792473,-0.2282 2.123305,-0.231927 1.609406,-0.0045 1.712778,0.02309 2.383417,0.636288 0.193278,0.176725 0.517128,0.405699 0.719666,0.508833 0.549155,0.279632 1.526168,1.299348 1.839051,1.91943 0.965747,1.913951 0.570689,3.963656 -1.082603,5.616948 -1.178211,1.178211 -2.247337,1.598676 -4.198198,1.651064 -0.810216,0.02176 -1.346098,-0.0051 -1.693333,-0.08484 z"
       style="fill:#ff6187;fill-opacity:1;stroke-width:0.0846667" />
  </g>
</svg>
