<?xml version="1.0" encoding="UTF-8" standalone="no"?>
<svg
   sodipodi:docname="uwu_emote_eyes.svg"
   inkscape:version="1.1.1 (3bf5ae0d25, 2021-09-20, custom)"
   id="svg8"
   version="1.1"
   viewBox="0 0 54.427349 20.788046"
   height="20.788046mm"
   width="54.427349mm"
   xmlns:inkscape="http://www.inkscape.org/namespaces/inkscape"
   xmlns:sodipodi="http://sodipodi.sourceforge.net/DTD/sodipodi-0.dtd"
   xmlns="http://www.w3.org/2000/svg"
   xmlns:svg="http://www.w3.org/2000/svg"
   xmlns:rdf="http://www.w3.org/1999/02/22-rdf-syntax-ns#"
   xmlns:cc="http://creativecommons.org/ns#"
   xmlns:dc="http://purl.org/dc/elements/1.1/">
  <defs
     id="defs2" />
  <sodipodi:namedview
     inkscape:window-maximized="0"
     inkscape:window-y="0"
     inkscape:window-x="0"
     inkscape:window-height="699"
     inkscape:window-width="1364"
     showgrid="false"
     inkscape:document-rotation="0"
     inkscape:current-layer="layer1"
     inkscape:document-units="mm"
     inkscape:cy="150.26019"
     inkscape:cx="141.67389"
     inkscape:zoom="1.979899"
     inkscape:pageshadow="2"
     inkscape:pageopacity="0.0"
     borderopacity="1.0"
     bordercolor="#666666"
     pagecolor="#ffffff"
     id="base"
     inkscape:pagecheckerboard="1" />
  <metadata
     id="metadata5">
    <rdf:RDF>
      <cc:Work
         rdf:about="">
        <dc:format>image/svg+xml</dc:format>
        <dc:type
           rdf:resource="http://purl.org/dc/dcmitype/StillImage" />
      </cc:Work>
    </rdf:RDF>
  </metadata>
  <g
     transform="translate(22.822768,-42.071817)"
     id="layer1"
     inkscape:groupmode="layer"
     inkscape:label="Layer 1">
    <path
       id="path857"
       d="m 16.892689,54.156964 c -2.034272,-0.338392 -4.286919,-2.666977 -5.295005,-5.473502 -0.57347,-1.596548 -0.791057,-4.010167 -0.449976,-4.991451 0.302345,-0.869844 1.078604,-1.154033 1.418329,-0.519251 0.05236,0.09783 0.126721,0.79228 0.165256,1.543226 0.1311,2.554801 0.698649,4.248578 1.928838,5.756372 1.893414,2.320685 3.833996,2.362022 5.54576,0.118135 1.377177,-1.80529 1.869798,-3.689837 1.65356,-6.325769 -0.05556,-0.677259 -0.07335,-1.341036 -0.03953,-1.475061 0.03381,-0.134026 0.175597,-0.357799 0.315073,-0.497274 0.216125,-0.216125 0.298345,-0.24633 0.556498,-0.204437 0.166599,0.02703 0.379912,0.117458 0.474031,0.20094 0.622619,0.552258 0.910701,2.817337 0.61112,4.804995 -0.174382,1.156981 -0.341296,1.734687 -0.763337,2.64197 -1.144608,2.460623 -2.862161,4.069312 -4.693573,4.396078 -0.718719,0.128236 -0.798222,0.129631 -1.427039,0.02503 z"
       style="fill:#000000;stroke-width:0.0846667" />
    <path
       id="path855"
       d="m -8.9882729,54.505549 c -1.0643191,-0.160075 -1.8798641,-0.537282 -2.8483931,-1.317441 -1.394542,-1.123315 -2.565498,-3.371726 -2.860476,-5.492537 -0.183155,-1.316837 -0.02779,-3.383844 0.348827,-4.640883 0.176405,-0.588785 0.732741,-0.838644 1.084375,-0.48701 0.199675,0.199675 0.217409,0.580483 0.07164,1.538253 -0.207732,1.364856 0.189939,3.733664 0.845783,5.038073 1.138968,2.265296 2.8454501,3.47554 4.4553691,3.15977 0.850247,-0.166768 1.373025,-0.472826 2.162545,-1.266052 0.574848,-0.577546 0.789993,-0.867863 1.069151,-1.442711 0.661663,-1.362508 0.970735,-2.484564 1.209064,-4.389381 0.133309,-1.065453 0.56957,-1.600632 1.205663,-1.479035 0.283409,0.05418 0.6976054,0.489407 0.8227673,0.86455 0.43918211,1.316347 -0.5142553,4.966671 -1.8032503,6.90391 -0.817572,1.228736 -2.046434,2.242606 -3.281697,2.707558 -0.473697,0.178299 -1.66668,0.408065 -1.958324,0.377168 -0.05484,-0.0058 -0.290207,-0.03921 -0.52304,-0.07423 z"
       style="fill:#000000;stroke-width:0.0846667" />
  </g>
</svg>
