<?xml version="1.0" encoding="UTF-8" standalone="no"?>
<svg
   viewBox="0 0 36 36"
   version="1.1"
   id="svg16"
   sodipodi:docname="vomit.svg"
   inkscape:version="1.1.1 (3bf5ae0d25, 2021-09-20, custom)"
   xmlns:inkscape="http://www.inkscape.org/namespaces/inkscape"
   xmlns:sodipodi="http://sodipodi.sourceforge.net/DTD/sodipodi-0.dtd"
   xmlns="http://www.w3.org/2000/svg"
   xmlns:svg="http://www.w3.org/2000/svg">
  <defs
     id="defs20" />
  <sodipodi:namedview
     id="namedview18"
     pagecolor="#505050"
     bordercolor="#ffffff"
     borderopacity="1"
     inkscape:pageshadow="0"
     inkscape:pageopacity="0"
     inkscape:pagecheckerboard="1"
     showgrid="false"
     inkscape:zoom="8"
     inkscape:cx="10.3125"
     inkscape:cy="16.4375"
     inkscape:window-width="1366"
     inkscape:window-height="701"
     inkscape:window-x="0"
     inkscape:window-y="0"
     inkscape:window-maximized="1"
     inkscape:current-layer="svg16" />
  <path
     fill="#77af57"
     d="M 33.589649,6.3883038 C 31.205565,1.1741362 33.650006,2.4344516 32.686604,-2.3875408 31.786642,-6.8920083 21.463427,-7.5126426 16.814178,-6.5202195 11.90596,-4.9864317 5.7905109,-8.4741007 2.9984443,-5.9407968 0.09107792,-3.1157167 3.2085463,-0.57421409 3.0649769,1.025985 2.506054,2.6797652 0.77640354,7.1261149 0.77640354,7.1261149 c 0,0 -1.22576492,6.1545961 -0.72776545,10.1330251 0.37044276,2.959402 1.63335641,6.016168 1.80926921,8.882374 0.2914742,4.749087 -1.44829667,8.458263 -0.5481472,9.64366 1.4253505,1.877027 3.7312788,-1.124363 6.4775195,-1.801956 2.6354614,-0.650259 5.6759754,1.877206 9.7699324,1.877206 2.425428,0 10.284441,1.28945 13.665449,-3.263787 2.934386,-3.951764 -0.05162,-5.089818 0.11653,-7.445799 0.317438,-3.421621 1.488943,-3.586882 2.199286,-4.539427 2.701723,-5.089619 3.189458,-10.122617 0.05117,-14.2231072 z"
     id="path6"
     sodipodi:nodetypes="csccccsssssscccc"
     style="stroke-width:1.09755" />
  <circle
     fill="#5d8f3f"
     cx="17.420805"
     cy="14.078082"
     r="1.235"
     id="circle8" />
  <circle
     transform="rotate(-80.781)"
     fill="#5d8f3f"
     cx="-15.873322"
     cy="21.673227"
     r="1.235"
     id="circle12" />
  <circle
     transform="rotate(-80.781)"
     fill="#5d8f3f"
     cx="-21.51988"
     cy="16.626024"
     r="1.765"
     id="circle14" />
  <circle
     transform="rotate(-80.781)"
     fill="#5d8f3f"
     cx="6.4154787"
     cy="23.503134"
     r="1.765"
     id="circle14-3" />
  <circle
     fill="#5d8f3f"
     cx="4.3138027"
     cy="23.077797"
     r="1.235"
     id="circle8-3" />
  <circle
     transform="rotate(-80.781)"
     fill="#5d8f3f"
     cx="-28.422247"
     cy="14.411425"
     r="1.235"
     id="circle12-6" />
  <circle
     fill="#5d8f3f"
     cx="23.259478"
     cy="14.651218"
     r="1.235"
     id="circle8-9" />
  <circle
     fill="#5d8f3f"
     cx="28.900469"
     cy="23.278175"
     r="1.235"
     id="circle8-36" />
  <circle
     transform="rotate(-80.781)"
     fill="#5d8f3f"
     cx="-2.3855894"
     cy="7.7450886"
     r="1.235"
     id="circle12-7" />
  <circle
     fill="#5d8f3f"
     cx="29.985771"
     cy="1.865836"
     r="1.235"
     id="circle8-9-5" />
  <circle
     fill="#5d8f3f"
     cx="15.724963"
     cy="-0.049598247"
     r="1.235"
     id="circle10-1" />
  <circle
     fill="#5d8f3f"
     cx="8.3583145"
     cy="-2.8724365"
     r="1.235"
     id="circle10-1-5" />
  <circle
     fill="#5d8f3f"
     cx="3.9413416"
     cy="32.587212"
     r="1.235"
     id="circle10-1-6" />
  <circle
     transform="rotate(-80.781)"
     fill="#5d8f3f"
     cx="-26.405264"
     cy="34.308968"
     r="1.235"
     id="circle12-2" />
  <circle
     transform="rotate(-80.781)"
     fill="#5d8f3f"
     cx="-27.845097"
     cy="26.679947"
     r="1.765"
     id="circle14-7" />
  <circle
     fill="#5d8f3f"
     cx="21.214603"
     cy="25.541885"
     r="1.235"
     id="circle10-9" />
  <circle
     transform="rotate(-80.781)"
     fill="#5d8f3f"
     cx="-13.446534"
     cy="13.829241"
     r="1.235"
     id="circle12-61" />
  <circle
     transform="rotate(-80.781)"
     fill="#5d8f3f"
     cx="-16.878141"
     cy="8.4188108"
     r="1.765"
     id="circle14-8" />
  <circle
     fill="#5d8f3f"
     cx="28.903559"
     cy="9.2455025"
     r="1.235"
     id="circle8-7" />
  <circle
     transform="rotate(-80.781)"
     fill="#5d8f3f"
     cx="-12.79987"
     cy="34.977268"
     r="1.235"
     id="circle12-0" />
  <circle
     transform="rotate(-80.781)"
     fill="#5d8f3f"
     cx="-14.054094"
     cy="30.784784"
     r="1.765"
     id="circle14-23" />
  <circle
     transform="rotate(-80.781)"
     fill="#5d8f3f"
     cx="0.041836377"
     cy="24.898912"
     r="1.235"
     id="circle12-8" />
  <circle
     transform="rotate(-80.781)"
     fill="#5d8f3f"
     cx="-5.1600623"
     cy="19.645136"
     r="2.8120465"
     id="circle14-9"
     style="stroke-width:1.59323" />
  <circle
     fill="#5d8f3f"
     cx="11.121143"
     cy="7.5266156"
     r="1.235"
     id="circle10-6" />
  <circle
     transform="rotate(-80.781)"
     fill="#5d8f3f"
     cx="-10.856714"
     cy="7.4958591"
     r="1.765"
     id="circle14-29" />
</svg>
